<svg width="46" height="31" viewBox="0 0 46 31" fill="none" xmlns="http://www.w3.org/2000/svg">
<path d="M33.2766 21.225H11.8816C11.6666 21.225 11.4966 21.05 11.4966 20.84V18.305C11.4966 18.19 11.5516 18.075 11.6416 18.005C11.7316 17.93 11.8516 17.905 11.9666 17.93C12.1316 17.965 12.3066 17.985 12.4816 17.985C13.3616 17.985 13.9766 17.535 13.9766 17.135V17.11C13.9716 16.93 14.0416 16.745 14.1766 16.605C14.3066 16.47 14.4866 16.395 14.6716 16.395C14.8616 16.395 15.0366 16.47 15.1716 16.605C15.3016 16.74 15.3766 16.93 15.3716 17.12V17.13C15.3716 17.535 15.9866 17.98 16.8716 17.98C17.7516 17.98 18.3666 17.53 18.3666 17.13C18.3666 16.935 18.4416 16.75 18.5766 16.61C18.7166 16.47 18.9016 16.395 19.0966 16.395H20.3966C20.8016 16.395 21.1266 16.725 21.1266 17.13C21.1266 17.535 21.7416 17.985 22.6216 17.985C23.5066 17.985 24.1216 17.535 24.1216 17.135C24.1216 16.94 24.1966 16.755 24.3316 16.615C24.4716 16.475 24.6566 16.4 24.8516 16.4H25.8866C26.2916 16.4 26.6166 16.73 26.6166 17.135C26.6166 17.54 27.2316 17.99 28.1166 17.99C28.9966 17.99 29.6116 17.54 29.6116 17.14C29.6116 16.945 29.6866 16.76 29.8216 16.62C29.9616 16.48 30.1466 16.405 30.3416 16.405H30.6266C31.0316 16.405 31.3566 16.735 31.3566 17.14C31.3566 17.545 31.9716 17.995 32.8516 17.995C32.9716 17.995 33.0966 17.985 33.2166 17.965C33.3266 17.945 33.4416 17.98 33.5266 18.055C33.6116 18.13 33.6616 18.235 33.6616 18.35V20.85C33.6616 21.055 33.4916 21.225 33.2766 21.225ZM12.2716 20.455H32.8916V18.76C31.6266 18.78 30.6116 18.075 30.5866 17.17H30.3816C30.3516 18.065 29.3666 18.76 28.1166 18.76C26.8616 18.76 25.8716 18.065 25.8466 17.17H24.8916C24.8616 18.065 23.8766 18.76 22.6216 18.76C21.3666 18.76 20.3816 18.065 20.3566 17.17H19.1366C19.1066 18.065 18.1216 18.76 16.8716 18.76C15.8066 18.76 14.9366 18.26 14.6766 17.565C14.4216 18.26 13.5516 18.76 12.4866 18.76C12.4166 18.76 12.3416 18.76 12.2716 18.755V20.455Z" fill="#425CC7"/>
<path d="M33.2765 16.035H11.8865C11.6715 16.035 11.5015 15.86 11.5015 15.65C11.5015 12.13 14.3665 9.26501 17.8865 9.26501H27.2765C30.7965 9.26501 33.6615 12.13 33.6615 15.65C33.6615 15.86 33.4915 16.035 33.2765 16.035ZM12.2815 15.26H32.8765C32.6765 12.345 30.2415 10.03 27.2765 10.03H17.8865C14.9215 10.035 12.4815 12.345 12.2815 15.26Z" fill="#425CC7"/>
<path d="M33.5414 23.2601H11.6164C10.8414 23.2601 10.2114 22.6301 10.2114 21.8551C10.2114 21.0801 10.8414 20.4501 11.6164 20.4501H33.5414C34.3164 20.4501 34.9464 21.0801 34.9464 21.8551C34.9464 22.6351 34.3164 23.2601 33.5414 23.2601ZM11.6164 21.2251C11.2664 21.2251 10.9864 21.5101 10.9864 21.8551C10.9864 22.2051 11.2714 22.4851 11.6164 22.4851H33.5414C33.8914 22.4851 34.1714 22.2001 34.1714 21.8551C34.1714 21.5051 33.8864 21.2251 33.5414 21.2251H11.6164Z" fill="#425CC7"/>
<path d="M31.3665 29.33H13.7965C12.5315 29.33 11.5015 28.3 11.5015 27.035V22.875C11.5015 22.66 11.6765 22.49 11.8865 22.49H33.2765C33.4915 22.49 33.6615 22.665 33.6615 22.875V27.035C33.6615 28.3 32.6315 29.33 31.3665 29.33ZM12.2715 23.26V27.035C12.2715 27.875 12.9565 28.56 13.7965 28.56H31.3665C32.2065 28.56 32.8915 27.875 32.8915 27.035V23.26H12.2715Z" fill="#425CC7"/>
<path d="M32.8562 18.76C31.6012 18.76 30.6162 18.065 30.5912 17.17H30.3862C30.3562 18.065 29.3712 18.76 28.1212 18.76C26.8662 18.76 25.8762 18.065 25.8512 17.17H24.8962C24.8662 18.065 23.8812 18.76 22.6262 18.76C21.3712 18.76 20.3862 18.065 20.3612 17.17H19.1412C19.1112 18.065 18.1262 18.76 16.8762 18.76C15.8112 18.76 14.9412 18.26 14.6812 17.565C14.4262 18.26 13.5562 18.76 12.4912 18.76C12.2612 18.76 12.0262 18.735 11.8062 18.685C10.8612 18.48 10.2212 17.855 10.2212 17.135C10.2212 16.515 10.7012 15.955 11.4662 15.685C11.4862 15.68 11.5012 15.66 11.5012 15.645C11.5012 15.43 11.6762 15.255 11.8862 15.255H32.3112C32.3162 15.255 32.3162 15.255 32.3212 15.255H33.2762C33.4812 15.255 33.6462 15.415 33.6612 15.615C34.5512 15.85 35.1212 16.445 35.1212 17.13C35.1212 17.905 34.3862 18.56 33.3312 18.715C33.1762 18.745 33.0162 18.76 32.8562 18.76ZM30.3412 16.4H30.6262C31.0312 16.4 31.3562 16.73 31.3562 17.135C31.3562 17.54 31.9712 17.99 32.8512 17.99C32.9712 17.99 33.0962 17.98 33.2162 17.96C33.8612 17.865 34.3512 17.51 34.3512 17.135C34.3512 16.815 33.9812 16.5 33.4512 16.36C33.2562 16.31 33.1012 16.19 33.0012 16.03H32.3612C32.3262 16.035 32.2912 16.035 32.2562 16.03H12.1712C12.0762 16.205 11.9162 16.345 11.7162 16.41C11.2712 16.565 10.9862 16.85 10.9862 17.13C10.9862 17.465 11.3962 17.8 11.9662 17.925C12.1362 17.965 12.3062 17.98 12.4862 17.98C13.3662 17.98 13.9812 17.53 13.9812 17.13V17.105C13.9762 16.925 14.0462 16.74 14.1812 16.6C14.3112 16.465 14.4912 16.39 14.6762 16.39C14.8662 16.39 15.0412 16.465 15.1762 16.6C15.3062 16.735 15.3812 16.925 15.3762 17.115V17.125C15.3762 17.53 15.9912 17.975 16.8762 17.975C17.7562 17.975 18.3712 17.525 18.3712 17.125C18.3712 16.93 18.4462 16.745 18.5812 16.605C18.7212 16.465 18.9062 16.39 19.1012 16.39H20.4012C20.8062 16.39 21.1312 16.72 21.1312 17.125C21.1312 17.53 21.7462 17.98 22.6262 17.98C23.5112 17.98 24.1262 17.53 24.1262 17.13C24.1262 16.935 24.2012 16.75 24.3362 16.61C24.4762 16.47 24.6612 16.395 24.8562 16.395H25.8912C26.2962 16.395 26.6212 16.725 26.6212 17.13C26.6212 17.535 27.2362 17.985 28.1212 17.985C29.0012 17.985 29.6162 17.535 29.6162 17.135C29.6162 16.94 29.6912 16.755 29.8262 16.615C29.9612 16.475 30.1462 16.4 30.3412 16.4Z" fill="#425CC7"/>
</svg>
